<svg width="68" height="25" viewBox="0 0 68 25" fill="none" xmlns="http://www.w3.org/2000/svg">
<path d="M29.995 14.8314L32.7747 8.42896H33.7073V10.2403L31.7346 14.8314H33.2052V14.0064C33.2052 13.8056 33.5399 13.7912 33.7073 13.8092V16.3379C33.2482 16.3379 33.1813 16.1824 33.2052 16.1047V15.3873H31.4656L27.1614 25H27L28.094 21.6822C28.094 21.6822 27.1255 21.3056 27.4483 20.4985C27.7712 19.6915 29.708 15.3873 29.708 15.3873H27.4483V14.8314H29.995Z" fill="black"/>
<path d="M37.2403 14.8314L34.4605 8.42896H33.528V10.2403L35.5007 14.8314H34.0301V14.0064C34.0301 13.8056 33.6954 13.7912 33.528 13.8092V16.3379C33.9871 16.3379 34.054 16.1824 34.0301 16.1047V15.3873H35.7697L40.0739 25H40.2353L39.1413 21.6822C39.1413 21.6822 40.1098 21.3056 39.7869 20.4985C39.4641 19.6915 37.5273 15.3873 37.5273 15.3873H39.7869V14.8314H37.2403Z" fill="black"/>
<path fill-rule="evenodd" clip-rule="evenodd" d="M33.6355 7.49641C34.6854 7.49641 35.5365 6.6453 35.5365 5.59541C35.5365 4.54551 34.6854 3.6944 33.6355 3.6944C32.5856 3.6944 31.7345 4.54551 31.7345 5.59541C31.7345 6.6453 32.5856 7.49641 33.6355 7.49641ZM33.6355 8.53658C35.2599 8.53658 36.5767 7.21978 36.5767 5.59541C36.5767 3.97104 35.2599 2.65423 33.6355 2.65423C32.0111 2.65423 30.6943 3.97104 30.6943 5.59541C30.6943 7.21978 32.0111 8.53658 33.6355 8.53658Z" fill="black"/>
<path d="M33.0975 0H34.1735V2.83357H33.0975V0Z" fill="black"/>
<path d="M3.82 16.2554H2.22V8.13537H0.42V6.65537H2.22V5.49537C2.22 4.85537 2.31333 4.30204 2.5 3.83537C2.7 3.35537 2.96667 2.9887 3.3 2.73537C3.63333 2.48204 3.98667 2.30204 4.36 2.19537C4.74667 2.07537 5.16667 2.01537 5.62 2.01537C6.47333 2.01537 7.27333 2.16204 8.02 2.45537V3.93537C7.40667 3.64204 6.73333 3.49537 6 3.49537C5.32 3.49537 4.78667 3.64204 4.4 3.93537C4.01333 4.21537 3.82 4.75537 3.82 5.55537V6.65537H7.42V8.13537H3.82V16.2554ZM16.7995 14.2554C16.7995 14.7487 17.0462 14.9954 17.5395 14.9954C17.7529 14.9954 17.9995 14.9487 18.2795 14.8554V16.1554C17.8795 16.302 17.4795 16.3754 17.0795 16.3754C16.1595 16.3754 15.5729 15.9887 15.3195 15.2154C14.2929 16.0687 13.0462 16.4954 11.5795 16.4954C10.6462 16.4954 9.8462 16.2487 9.17953 15.7554C8.5262 15.2487 8.19953 14.522 8.19953 13.5754C8.19953 12.442 8.61953 11.622 9.45953 11.1154C10.3129 10.5954 11.3395 10.3354 12.5395 10.3354C13.4195 10.3354 14.3062 10.4354 15.1995 10.6354V10.2954C15.1995 9.56204 14.9595 8.98204 14.4795 8.55537C13.9995 8.11537 13.3262 7.89537 12.4595 7.89537C11.2462 7.89537 10.0795 8.13537 8.95953 8.61537V7.05537C10.2129 6.6287 11.4329 6.41537 12.6195 6.41537C13.9262 6.41537 14.9462 6.7687 15.6795 7.47537C16.4262 8.1687 16.7995 9.17537 16.7995 10.4954V14.2554ZM9.83953 13.4954C9.83953 14.0287 10.0395 14.4354 10.4395 14.7154C10.8529 14.982 11.3462 15.1154 11.9195 15.1154C13.2395 15.1154 14.3329 14.6487 15.1995 13.7154V11.9554C14.2929 11.7687 13.4795 11.6754 12.7595 11.6754C11.9462 11.6754 11.2529 11.822 10.6795 12.1154C10.1195 12.3954 9.83953 12.8554 9.83953 13.4954ZM26.6092 6.65537H28.3892L24.1492 16.2554H22.4692L18.2292 6.65537H20.0092L23.3092 14.4554L26.6092 6.65537ZM31.7919 16.2554H30.1919V6.65537H31.7919V16.2554ZM31.7319 2.85537C31.9319 3.0287 32.0319 3.27537 32.0319 3.59537C32.0319 3.91537 31.9319 4.1687 31.7319 4.35537C31.5319 4.5287 31.2852 4.61537 30.9919 4.61537C30.6985 4.61537 30.4519 4.5287 30.2519 4.35537C30.0519 4.1687 29.9519 3.91537 29.9519 3.59537C29.9519 3.27537 30.0519 3.0287 30.2519 2.85537C30.4519 2.6687 30.6985 2.57537 30.9919 2.57537C31.2852 2.57537 31.5319 2.6687 31.7319 2.85537ZM34.1403 11.4954C34.1403 10.6554 34.2936 9.90204 34.6003 9.23537C34.907 8.5687 35.307 8.03537 35.8003 7.63537C36.307 7.23537 36.8603 6.93537 37.4603 6.73537C38.0736 6.52204 38.7003 6.41537 39.3403 6.41537C40.527 6.41537 41.5136 6.67537 42.3003 7.19537V8.75537C41.567 8.18204 40.647 7.89537 39.5403 7.89537C38.5003 7.89537 37.607 8.19537 36.8603 8.79537C36.1136 9.39537 35.7403 10.282 35.7403 11.4554C35.7403 12.6154 36.107 13.502 36.8403 14.1154C37.587 14.7154 38.4736 15.0154 39.5003 15.0154C40.567 15.0154 41.5336 14.7554 42.4003 14.2354V15.8354C41.4936 16.2754 40.4536 16.4954 39.2803 16.4954C37.8936 16.4954 36.687 16.062 35.6603 15.1954C34.647 14.3287 34.1403 13.0954 34.1403 11.4954ZM45.4064 15.1554C44.3931 14.2487 43.8864 13.0154 43.8864 11.4554C43.8864 9.89537 44.3931 8.6687 45.4064 7.77537C46.4197 6.8687 47.6197 6.41537 49.0064 6.41537C50.4064 6.41537 51.6064 6.8687 52.6064 7.77537C53.6197 8.6687 54.1264 9.89537 54.1264 11.4554C54.1264 13.0154 53.6197 14.2487 52.6064 15.1554C51.6064 16.0487 50.4064 16.4954 49.0064 16.4954C47.6197 16.4954 46.4197 16.0487 45.4064 15.1554ZM51.5264 14.0354C52.1931 13.3954 52.5264 12.5354 52.5264 11.4554C52.5264 10.3754 52.1931 9.52204 51.5264 8.89537C50.8597 8.25537 50.0197 7.93537 49.0064 7.93537C47.9931 7.93537 47.1531 8.25537 46.4864 8.89537C45.8197 9.52204 45.4864 10.3754 45.4864 11.4554C45.4864 12.5354 45.8197 13.3954 46.4864 14.0354C47.1531 14.662 47.9931 14.9754 49.0064 14.9754C50.0197 14.9754 50.8597 14.662 51.5264 14.0354ZM57.8614 8.07537C58.2081 7.6087 58.6881 7.21537 59.3014 6.89537C59.9281 6.57537 60.6014 6.41537 61.3214 6.41537C62.4814 6.41537 63.4347 6.78204 64.1814 7.51537C64.9414 8.23537 65.3214 9.17537 65.3214 10.3354V16.2554H63.7214V10.5354C63.7214 9.6687 63.4814 9.01537 63.0014 8.57537C62.5347 8.12204 61.9147 7.89537 61.1414 7.89537C59.9147 7.89537 58.8747 8.53537 58.0214 9.81537V16.2554H56.4214V6.65537H57.8614V8.07537Z" fill="#CACACA"/>
</svg>
